<?xml version="1.0" encoding="UTF-8"?>
<svg xmlns="http://www.w3.org/2000/svg" viewBox="0 0 1120 338.48">
  <defs>
    <style>
      .cls-1 {
        fill: #ef8130;
      }

      .cls-2, .cls-3 {
        fill: #ff7300;
      }

      .cls-4 {
        fill: #f2c6a5;
        stroke: #f2c6a5;
      }

      .cls-4, .cls-5 {
        stroke-miterlimit: 10;
      }

      .cls-5 {
        fill: #f7984b;
        stroke: #f7984b;
      }

      .cls-6 {
        fill: #f7f7f7;
      }

      .cls-3 {
        font-family: Roboto-Bold, Roboto;
        font-size: 150px;
        font-weight: 700;
      }
    </style>
  </defs>
  <g id="Layer_3" data-name="Layer 3">
    <path class="cls-1" d="m294,292s-56,29-107,8c-14-55,10-157,128.55-185.31l-6.42,13.06s-101.13,77.26-15.13,164.26Z"/>
  </g>
  <g id="Layer_2" data-name="Layer 2">
    <path class="cls-2" d="m229.5,14c-80.03,0-145.07,64.18-146.47,143.88,31.09-36.71,85.61-66.42,111.47-73.38,5-43,40-27,47-20,23-15,29,11,29,11,0,0,2,1,24.5,1.5,27,1,22,31,22,31,0,0-2,18-19,29-84.83,82.94-15.08,149.07-6.79,156.39,50.07-23.29,84.79-74.03,84.79-132.89,0-80.91-65.59-146.5-146.5-146.5Z"/>
  </g>
  <g id="Layer_4" data-name="Layer 4">
    <path class="cls-5" d="m186.43,299.14s-137.43-40.14-24.43-129.14c43-30,109.5-63.5,155.5-64.5,0,9-3,10-3,10,0,0-130.07,20.64-128.07,183.64Z"/>
  </g>
  <g id="Layer_5" data-name="Layer 5">
    <path class="cls-4" d="m84.97,185.5s48.9-80.28,109.53-94.16v-9.34s-68.46,18.26-111,74.26q1.47,29.24,1.47,29.24Z"/>
  </g>
  <g id="Layer_6" data-name="Layer 6">
    <circle class="cls-2" cx="221.5" cy="77.5" r="17.5"/>
  </g>
  <g id="Layer_7" data-name="Layer 7">
    <ellipse class="cls-6" cx="229.5" cy="75.13" rx="3.5" ry="6.12"/>
  </g>
  <g id="Layer_8" data-name="Layer 8">
    <path class="cls-2" d="m300.4,84.2c.35-.69,1.18-.98,1.88-.67,2.22,1,6.46,3.23,5.72,5.46-.87,2.6-3.99.69-4.8.14-.13-.09-.24-.2-.33-.32l-2.33-3.11c-.33-.44-.38-1.02-.14-1.51h0Z"/>
  </g>
  <g id="Layer_9" data-name="Layer 9">
    <text/>
    <text/>
    <text class="cls-3" transform="translate(402.82 228.29)"><tspan x="0" y="0">Cóc Phượt</tspan></text>
  </g>
</svg>